<?xml version="1.0" encoding="UTF-8" standalone="no"?>
<!-- Created with Inkscape (http://www.inkscape.org/) -->
<svg xmlns:dc="http://purl.org/dc/elements/1.1/" xmlns:cc="http://creativecommons.org/ns#" xmlns:rdf="http://www.w3.org/1999/02/22-rdf-syntax-ns#" xmlns:svg="http://www.w3.org/2000/svg" xmlns="http://www.w3.org/2000/svg" xmlns:xlink="http://www.w3.org/1999/xlink" xmlns:sodipodi="http://sodipodi.sourceforge.net/DTD/sodipodi-0.dtd" xmlns:inkscape="http://www.inkscape.org/namespaces/inkscape" width="744.09448" height="524.40942" id="svg2" version="1.1" inkscape:version="0.47 r22583" sodipodi:docname="snowflakes.svg">
  <defs id="defs4">
    <linearGradient id="linearGradient5322">
      <stop style="stop-color:#ffffff;stop-opacity:1;" offset="0" id="stop5324"/>
      <stop style="stop-color:#d5d5ff;stop-opacity:0;" offset="1" id="stop5326"/>
    </linearGradient>
    <linearGradient id="linearGradient5313">
      <stop style="stop-color:#ffffff;stop-opacity:1;" offset="0" id="stop5315"/>
      <stop style="stop-color:#d5d5ff;stop-opacity:0;" offset="1" id="stop5317"/>
    </linearGradient>
    <linearGradient id="linearGradient5304">
      <stop style="stop-color:#ffffff;stop-opacity:1;" offset="0" id="stop5306"/>
      <stop style="stop-color:#d5d5ff;stop-opacity:0;" offset="1" id="stop5308"/>
    </linearGradient>
    <linearGradient id="linearGradient5288">
      <stop style="stop-color:#ffffff;stop-opacity:1;" offset="0" id="stop5290"/>
      <stop style="stop-color:#d5d5ff;stop-opacity:0;" offset="1" id="stop5292"/>
    </linearGradient>
    <linearGradient id="linearGradient5280">
      <stop style="stop-color:#ffffff;stop-opacity:1;" offset="0" id="stop5282"/>
      <stop style="stop-color:#d5d5ff;stop-opacity:0;" offset="1" id="stop5284"/>
    </linearGradient>
    <linearGradient id="linearGradient5272">
      <stop style="stop-color:#ffffff;stop-opacity:1;" offset="0" id="stop5274"/>
      <stop style="stop-color:#d5d5ff;stop-opacity:0;" offset="1" id="stop5276"/>
    </linearGradient>
    <inkscape:perspective sodipodi:type="inkscape:persp3d" inkscape:vp_x="0 : 526.18109 : 1" inkscape:vp_y="0 : 1000 : 0" inkscape:vp_z="744.09448 : 526.18109 : 1" inkscape:persp3d-origin="372.04724 : 350.78739 : 1" id="perspective10"/>
    <linearGradient inkscape:collect="always" xlink:href="#linearGradient5304" id="linearGradient5310" x1="97.1875" y1="283.40622" x2="28.5625" y2="489.5" gradientUnits="userSpaceOnUse" gradientTransform="matrix(1.1405059,0,0,1,-4.0132009,523.95938)"/>
    <linearGradient inkscape:collect="always" xlink:href="#linearGradient5313" id="linearGradient5319" x1="386.67188" y1="235.4626" x2="386.67188" y2="489.5" gradientUnits="userSpaceOnUse" gradientTransform="translate(0,523.95938)"/>
    <linearGradient inkscape:collect="always" xlink:href="#linearGradient5322" id="linearGradient5328" x1="590.875" y1="242.49995" x2="721.4375" y2="489.5" gradientUnits="userSpaceOnUse" gradientTransform="matrix(1.2630555,0,0,1,-189.77812,523.95938)"/>
    <inkscape:perspective id="perspective5340" inkscape:persp3d-origin="0.5 : 0.33333333 : 1" inkscape:vp_z="1 : 0.5 : 1" inkscape:vp_y="0 : 1000 : 0" inkscape:vp_x="0 : 0.5 : 1" sodipodi:type="inkscape:persp3d"/>
    <linearGradient inkscape:collect="always" xlink:href="#linearGradient5313" id="linearGradient6025" gradientUnits="userSpaceOnUse" gradientTransform="translate(0,-3.99202)" x1="386.67188" y1="235.4626" x2="386.67188" y2="489.5"/>
    <linearGradient inkscape:collect="always" xlink:href="#linearGradient5313" id="linearGradient6028" gradientUnits="userSpaceOnUse" gradientTransform="translate(0,-3.99202)" x1="386.67188" y1="235.4626" x2="386.67188" y2="489.5"/>
  </defs>
  <sodipodi:namedview id="base" pagecolor="#ffffff" bordercolor="#666666" borderopacity="1.0" inkscape:pageopacity="0.0" inkscape:pageshadow="2" inkscape:zoom="0.7" inkscape:cx="397.58142" inkscape:cy="242.59703" inkscape:document-units="px" inkscape:current-layer="layer3" showgrid="false" units="cm" inkscape:window-width="1280" inkscape:window-height="757" inkscape:window-x="-4" inkscape:window-y="-3" inkscape:window-maximized="1"/>
  <g inkscape:groupmode="layer" id="layer2" inkscape:label="background" transform="translate(0,-527.9514)">
    <rect style="opacity:0.68372096999999998;fill:#000049;fill-opacity:1;fill-rule:evenodd;stroke:none" id="rect4486" width="692.85712" height="464.28571" x="28.571428" y="551.19897" rx="50.722446" ry="50.722446"/>
  </g>
  <g inkscape:label="hills" inkscape:groupmode="layer" id="layer1" transform="translate(0,-527.9514)">
    <path style="opacity:0.68372096999999998;fill:url(#linearGradient5328);fill-opacity:1;fill-rule:evenodd;stroke:none" d="m 662.94224,766.45938 c -2.4106,0.002 -4.7918,0.0571 -7.18363,0.15625 -120.41524,4.99035 -251.53149,136.44116 -264.13648,246.84377 l 265.75477,0 c 35.49215,0 64.0606,-22.61852 64.0606,-50.71877 l 0,-187.75 c -19.67367,-5.52437 -39.36393,-8.54467 -58.49526,-8.53125 z" id="rect5296"/>
    <path style="opacity:0.68372096999999998;fill:url(#linearGradient6028);fill-opacity:1;fill-rule:evenodd;stroke:none" d="M 387.0625 306 C 380.82953 306.0401 374.6548 306.43902 368.5625 307.21875 C 328.50198 312.34593 285.09489 333.28064 247.84375 362.96875 C 275.03622 399.50957 292.39266 443.60155 299.15625 485.5 L 391.625 485.5 C 397.69102 432.36993 431.19246 374.37677 477.75 327.9375 C 448.28449 313.91439 417.0186 305.80734 387.0625 306 z " transform="translate(0,527.9514)" id="path5299"/>
    <path style="opacity:0.68372096999999998;fill:url(#linearGradient5310);fill-opacity:1;fill-rule:evenodd;stroke:none" d="m 87.548042,807.36563 c -20.950314,0.0108 -40.638537,3.541 -58.985542,9.625 l 0,145.75 c 0,28.10025 25.79655,50.71877 57.845036,50.71877 l 212.739994,0 c -13.32578,-82.54934 -67.6722,-173.72267 -157.6393,-198.56252 -18.77089,-5.18263 -36.77931,-7.54011 -53.960188,-7.53125 z" id="path5301"/>
  </g>
  <g inkscape:groupmode="layer" id="layer3" inkscape:label="snowflakes">
    <path sodipodi:type="star" style="opacity:0.54418604000000004;fill:#ffffff;fill-opacity:1;fill-rule:evenodd;stroke:none" id="path5356" sodipodi:sides="6" sodipodi:cx="307.08636" sodipodi:cy="132.1132" sodipodi:r1="49.321934" sodipodi:r2="49.244026" sodipodi:arg1="0.96007036" sodipodi:arg2="-2.4032146" inkscape:flatsided="false" inkscape:rounded="0" inkscape:randomized="0" d="m 335.37064,172.51931 -64.70325,-73.551731 15.5684,77.843571 31.34604,-92.810514 -59.63031,52.404414 96.04929,-19.25879 -75.19872,-25.439157 64.70325,73.551727 -15.5684,-77.843574 -31.34604,92.810514 59.63031,-52.40441 -96.04929,19.25879 75.19872,25.43916 z" transform="matrix(0.55798622,0,0,0.55798622,-34.474294,-7.16225)"/>
    <path sodipodi:type="star" style="opacity:0.54418604000000004;fill:#ffffff;fill-opacity:1;fill-rule:evenodd;stroke:none" id="path5358" sodipodi:sides="6" sodipodi:cx="427.29453" sodipodi:cy="166.4584" sodipodi:r1="27.19919" sodipodi:r2="108.1595" sodipodi:arg1="1.1902899" sodipodi:arg2="-1.8337686" inkscape:flatsided="false" inkscape:rounded="1" inkscape:randomized="0" d="M 437.39605,191.71222 C 532.90108,96.003434 533.01328,81.241518 399.17827,62.017255 274.13929,44.056467 288.42205,155.2689 410.47484,187.83349 c 130.63876,34.85539 143.47905,27.5716 93.21025,-97.945051 -46.965,-117.267332 -136.1364,-49.29188 -103.31177,72.691241 35.13372,130.56417 47.86182,138.0423 131.42802,31.74991 78.07399,-99.306545 -25.38018,-142.543524 -114.60834,-53.125 -95.50503,95.70878 -95.61723,110.4707 38.21778,129.69496 125.03899,17.96079 110.75622,-93.25164 -11.29657,-125.81623 -130.63876,-34.85539 -143.47905,-27.5716 -93.21025,97.94505 46.965,117.26733 136.13641,49.29188 103.31177,-72.69124 C 419.08201,39.772958 406.35391,32.294834 322.78771,138.58722 c -78.07399,99.30654 25.38018,142.54352 114.60834,53.125 z" transform="matrix(0.24772148,0,0,0.24772148,519.80461,20.48585)"/>
    <path sodipodi:type="star" style="opacity:0.54418604000000004;fill:#ffffff;fill-opacity:1;fill-rule:evenodd;stroke:none" id="path5362" sodipodi:sides="6" sodipodi:cx="265.6701" sodipodi:cy="131.10306" sodipodi:r1="72.73098" sodipodi:r2="1.0182338" sodipodi:arg1="1.5707963" sodipodi:arg2="2.0943951" inkscape:flatsided="false" inkscape:rounded="1" inkscape:randomized="0" d="m 265.67011,203.83404 c -71.85097,0 61.71564,-35.92368 -0.50912,-71.84917 -62.22477,-35.925478 -26.55228,97.70844 -62.47776,35.48368 -35.92548,-62.22476 61.96864,35.48548 61.96864,-36.36549 0,-71.850969 -97.89413,25.85927 -61.96864,-36.36549 35.92548,-62.224764 0.253,71.40916 62.47776,35.48367 62.22476,-35.925484 -71.34185,-71.849162 0.50911,-71.849162 71.85097,0 -61.71564,35.923682 0.50912,71.849162 62.22477,35.92548 26.55228,-97.708437 62.47776,-35.483674 35.92548,62.224764 -61.96864,-35.485476 -61.96864,36.365494 0,71.85097 97.89413,-25.85928 61.96864,36.36549 -35.92548,62.22476 -0.253,-71.409161 -62.47776,-35.48368 -62.22476,35.92549 71.34185,71.84917 -0.50911,71.84917 z" transform="matrix(0.21090211,0.10999635,-0.10999635,0.21090211,146.78391,72.38612)"/>
    <path sodipodi:type="star" style="opacity:0.54418604000000004;fill:#ffffff;fill-opacity:1;fill-rule:evenodd;stroke:none" id="path5364" sodipodi:sides="6" sodipodi:cx="677.81238" sodipodi:cy="153.32642" sodipodi:r1="35.470596" sodipodi:r2="10.332576" sodipodi:arg1="1.2220253" sodipodi:arg2="-0.24851384" inkscape:flatsided="false" inkscape:rounded="2" inkscape:randomized="0" d="m 689.93421,186.66145 c 50.16134,51.4789 68.67303,-23.36771 -2.10668,-35.87647 -87.1894,-15.40882 -8.80063,-55.512588 -32.82322,29.70677 -19.50137,69.18044 54.57354,47.78873 30.01659,-19.76268 -30.25027,-83.212644 43.675,-35.37786 -42.13842,-13.57236 -69.66271,17.70155 -14.09949,71.15645 32.12327,16.1138 56.93913,-67.803829 52.47563,20.13473 -9.3152,-43.27913 -50.16134,-51.478897 -68.67304,23.36771 2.10668,35.87647 87.1894,15.40882 8.80063,55.51259 32.82322,-29.70676 19.50136,-69.18045 -54.57355,-47.788742 -30.0166,19.76267 30.25028,83.21265 -43.67499,35.37786 42.13843,13.57236 69.6627,-17.70155 14.09949,-71.156446 -32.12328,-16.1138 -56.93913,67.80383 -52.47562,-20.13472 9.31521,43.27913 z" transform="matrix(0.24067205,0,0,0.24067205,-67.165983,156.2679)"/>
    <path sodipodi:type="star" style="opacity:0.54418604000000004;fill:#ffffff;fill-opacity:1;fill-rule:evenodd;stroke:none" id="path5366" sodipodi:sides="6" sodipodi:cx="660.63977" sodipodi:cy="170.49901" sodipodi:r1="24.285713" sodipodi:r2="10.332576" sodipodi:arg1="1.2753555" sodipodi:arg2="1.7989543" inkscape:flatsided="false" inkscape:rounded="2" inkscape:randomized="0" d="m 667.71084,193.73252 c -30.96596,9.42442 22.12139,-5.84752 -9.40813,-13.16871 -31.52952,-7.32119 9.39655,29.78077 -14.24821,7.67568 -23.64477,-22.1051 16.12479,16.23393 6.70037,-14.73203 -9.42443,-30.96596 -21.09263,23.02804 -13.77144,-8.50148 7.32119,-31.52952 -5.9966,22.08144 16.10849,-1.56333 22.1051,-23.64477 -30.48918,-6.75273 0.47678,-16.17715 30.96596,-9.42442 -22.12139,5.84751 9.40813,13.1687 31.52952,7.3212 -9.39655,-29.78077 14.24821,-7.67567 23.64477,22.1051 -16.12479,-16.23393 -6.70036,14.73203 9.42442,30.96596 21.09262,-23.02804 13.77143,8.50148 -7.32119,31.52952 5.9966,-22.08145 -16.10849,1.56332 -22.1051,23.64477 30.48918,6.75273 -0.47678,16.17716 z" transform="matrix(0.68267246,0.43099747,-0.43099747,0.68267246,300.24653,-273.00785)"/>
    <path sodipodi:type="star" style="opacity:0.54418604000000004;fill:#ffffff;fill-opacity:1;fill-rule:evenodd;stroke:none" id="path5368" sodipodi:sides="6" sodipodi:cx="481.84277" sodipodi:cy="157.36703" sodipodi:r1="39.44772" sodipodi:r2="16.783388" sodipodi:arg1="0.87605805" sodipodi:arg2="1.3996568" inkscape:flatsided="false" inkscape:rounded="3" inkscape:randomized="0" d="m 507.09659,187.67161 c -60.58558,50.48799 55.31712,-27.19746 -22.39552,-13.76637 -77.71264,13.43109 57.54074,47.70919 -16.47592,20.48453 -74.01667,-27.22466 51.21225,34.30731 0.72427,-26.27827 -50.48798,-60.58558 -12.547,73.68633 -25.97809,-4.02631 -13.43109,-77.712639 -4.10487,61.50477 23.11979,-12.5119 27.22466,-74.016662 -70.08774,25.97715 -9.50216,-24.51083 60.58558,-50.487986 -55.31713,27.19746 22.39551,13.76637 77.71264,-13.43109 -57.54074,-47.709186 16.47593,-20.48453 74.01666,27.22466 -51.21225,-34.307306 -0.72427,26.27827 50.48798,60.58558 12.547,-73.686333 25.97808,4.02631 13.43109,77.71264 4.10488,-61.504767 -23.11978,12.5119 -27.22466,74.01666 70.08774,-25.97715 9.50216,24.51083 z" transform="matrix(0.54977136,0,0,0.54977136,135.84284,101.00259)"/>
    <path sodipodi:type="star" style="opacity:0.54418604000000004;fill:#ffffff;fill-opacity:1;fill-rule:evenodd;stroke:none" id="path5370" sodipodi:sides="6" sodipodi:cx="494.97476" sodipodi:cy="101.80864" sodipodi:r1="36.770107" sodipodi:r2="39.960915" sodipodi:arg1="1.2924967" sodipodi:arg2="0.12732624" inkscape:flatsided="false" inkscape:rounded="3" inkscape:randomized="0" d="m 505.07629,137.16398 c 49.02415,117.04876 152.62553,0.58521 29.5359,-30.281 -199.65461,-50.065821 59.45574,-142.44159 -65.20529,21.35151 -76.85512,100.98054 75.80596,132.47019 40.99207,10.43834 C 453.92994,-59.266046 663.48487,118.94222 459.30538,92.879147 333.4261,76.81093 382.4858,224.76413 470.76154,133.59849 613.94712,-14.274566 564.3917,256.30947 484.87324,66.453301 435.84908,-50.595458 332.24771,65.868086 455.33733,96.734303 654.99195,146.80012 395.88159,239.17589 520.54262,75.382793 597.39774,-25.597748 444.73667,-57.087401 479.55055,64.944451 536.01959,262.88333 326.46465,84.675062 530.64415,110.73813 656.52342,126.80635 607.46372,-21.146848 519.18798,70.018787 376.00241,217.89185 425.55782,-52.692187 505.07629,137.16398 z" transform="matrix(0.14621796,0,0,0.14621796,525.13104,153.59286)"/>
    <path sodipodi:type="star" style="opacity:0.54418604;fill:#ffffff;fill-opacity:1;fill-rule:evenodd;stroke:none" id="path5372" sodipodi:sides="6" sodipodi:cx="274.76151" sodipodi:cy="205.85435" sodipodi:r1="48.581936" sodipodi:r2="52.149776" sodipodi:arg1="1.6332151" sodipodi:arg2="0.024642707" inkscape:flatsided="false" inkscape:rounded="4" inkscape:randomized="0" d="M 271.73105,254.34168 C 410.80033,509.2897 568.78072,367.85732 326.89545,207.13934 1.1354358,-9.3082801 434.96078,-106.40234 231.25502,227.47357 79.998196,475.3851 281.47243,541.48395 299.71565,251.64616 324.28478,-138.69409 625.28337,188.46265 234.28548,178.98624 -56.040624,171.94976 -12.546786,379.48099 247.58171,250.36118 597.91085,76.468545 465.08409,500.71935 277.79196,157.36703 138.72269,-97.580992 -19.257714,43.851392 222.62756,204.56937 548.38757,421.01699 114.56223,518.11105 318.26799,184.23514 469.52481,-63.676392 268.05058,-129.77524 249.80736,160.06255 225.23823,550.4028 -75.760361,223.24606 315.23753,232.72247 605.56363,239.75895 562.0698,32.227723 301.9413,161.34753 -48.387837,335.24016 84.438917,-89.010636 271.73105,254.34168 z" transform="matrix(0.17842767,-0.10520379,0.10520379,0.17842767,166.11242,158.49791)"/>
    <path sodipodi:type="star" style="opacity:0.54418604000000004;fill:#ffffff;fill-opacity:1;fill-rule:evenodd;stroke:none" id="path5374" sodipodi:sides="6" sodipodi:cx="488.91382" sodipodi:cy="94.737572" sodipodi:r1="27.737841" sodipodi:r2="29.713846" sodipodi:arg1="1.3876855" sodipodi:arg2="2.8973961" inkscape:flatsided="false" inkscape:rounded="4" inkscape:randomized="0" d="m 493.96458,122.01169 c -109.41064,-113.3844131 114.64941,32.49155 -33.88305,-20.09 -50.17933,-17.763841 -6.9543,61.99018 7.73759,10.82703 43.48846,-151.444601 29.18619,115.53508 0.45692,-39.388587 -9.70572,-52.338495 -57.16221,24.972497 -5.50768,12.114468 152.8991,-38.060187 -85.46322,83.043529 34.33998,-19.298586 40.4736,-34.574654 -50.20793,-37.017682 -13.24528,1.287437 109.41064,113.384418 -114.64942,-32.491553 33.88305,20.090001 50.17933,17.763837 6.95429,-61.990178 -7.73759,-10.82703 -43.48847,151.444597 -29.1862,-115.53508 -0.45693,39.388587 9.70573,52.3385 57.16222,-24.972496 5.50769,-12.11447 -152.8991,38.06019 85.46322,-83.043524 -34.33998,19.29859 -40.4736,34.57465 50.20792,37.01768 13.24528,-1.28744 z" transform="matrix(0.25814191,0,0,0.25814191,450.08287,62.67819)"/>
    <path sodipodi:type="star" style="opacity:0.54418604000000004;fill:#ffffff;fill-opacity:1;fill-rule:evenodd;stroke:none" id="path5376" sodipodi:sides="6" sodipodi:cx="434.3656" sodipodi:cy="66.4533" sodipodi:r1="7.3540211" sodipodi:r2="5.4372263" sodipodi:arg1="-0.27829961" sodipodi:arg2="3.0633223" inkscape:flatsided="false" inkscape:rounded="5" inkscape:randomized="0" d="m 441.43667,64.432996 c -36.0329,-52.461096 2.96297,-59.2934509 -12.49165,2.445444 -14.1902,56.68774 -14.46739,57.42527 10.70575,4.688432 27.41619,-57.435952 52.83112,-27.08072 -8.36364,-9.595362 -56.18812,16.054797 -56.96544,16.183506 1.29257,11.615667 63.44909,-4.974857 49.86815,32.212733 4.12801,-12.040806 -41.99792,-40.632942 -42.49805,-41.241767 -9.41318,6.927234 36.0329,52.461095 -2.96296,59.293455 12.49165,-2.445444 14.1902,-56.6877379 14.46739,-57.4252725 -10.70575,-4.688432 -27.41619,57.435951 -52.83112,27.080719 8.36364,9.595362 56.18812,-16.054797 56.96544,-16.183506 -1.29257,-11.615667 -63.44909,4.974857 -49.86815,-32.212731 -4.12801,12.040806 41.99792,40.63294 42.49805,41.24177 9.41318,-6.927234 z" transform="matrix(0.76952312,0,0,0.76952312,197.4364,192.14123)"/>
    <path sodipodi:type="star" style="opacity:0.54418604000000004;fill:#ffffff;fill-opacity:1;fill-rule:evenodd;stroke:none" id="path5378" sodipodi:sides="6" sodipodi:cx="413.1524" sodipodi:cy="92.717262" sodipodi:r1="18.571428" sodipodi:r2="5.4098525" sodipodi:arg1="1.1801893" sodipodi:arg2="1.7037881" inkscape:flatsided="false" inkscape:rounded="5" inkscape:randomized="0" d="m 420.22347,109.88986 c -65.40873,26.933 62.32372,-2.43082 -7.78841,-11.810516 -70.11213,-9.379699 45.41001,52.527066 -10.61902,9.347936 -56.02904,-43.179121 33.267,52.75852 6.33399,-12.650218 -26.933,-65.408734 -22.78476,65.589758 -13.40506,-4.522372 9.3797,-70.11213 -29.05671,55.18933 14.12241,-0.839709 43.17912,-56.029036 -68.19478,13.062689 -2.78604,-13.870312 65.40873,-26.933006 -62.32372,2.430813 7.78841,11.810512 70.11213,9.379699 -45.41001,-52.527063 10.61902,-9.347939 56.02904,43.179128 -33.267,-52.758515 -6.33399,12.65022 26.933,65.408738 22.78476,-65.589757 13.40506,4.522373 -9.3797,70.112135 29.05671,-55.189328 -14.12241,0.839709 -43.17912,56.029036 68.19478,-13.062694 2.78604,13.870316 z" transform="matrix(0.54815594,0,0,0.54815594,-32.010177,237.40685)"/>
    <path sodipodi:type="star" style="opacity:0.54418604000000004;fill:#ffffff;fill-opacity:1;fill-rule:evenodd;stroke:none" id="path5380" sodipodi:sides="6" sodipodi:cx="241.42645" sodipodi:cy="277.57516" sodipodi:r1="20.824827" sodipodi:r2="4.4812117" sodipodi:arg1="1.3258177" sodipodi:arg2="-1.2619619" inkscape:flatsided="false" inkscape:rounded="5" inkscape:randomized="0" d="m 246.47721,297.77821 c 120.90047,-26.37261 115.28263,9.56098 -3.6887,-24.47224 -119.51767,-34.18952 -100.0051,-73.19202 -16.33303,18.74481 83.28959,91.51657 49.36126,104.61817 19.34924,-15.43064 -30.14985,-120.6001 13.38359,-123.20297 -24.4,-4.77241 -37.61088,117.88918 -65.92137,95.05719 23.03794,9.04161 89.36782,-86.41058 113.3887,-50.01095 -8.06697,-23.51723 -120.90047,26.37262 -115.28262,-9.56097 3.68871,24.47225 119.51767,34.18952 100.0051,73.19202 16.33303,-18.74481 -83.28959,-91.51657 -49.36127,-104.61817 -19.34924,15.43064 30.14985,120.6001 -13.3836,123.20297 24.4,4.77241 37.61088,-117.88918 65.92136,-95.05719 -23.03794,-9.04161 -89.36783,86.41058 -113.3887,50.01095 8.06696,23.51722 z" transform="matrix(0.37673122,0,0,0.37673122,191.38475,-45.52513)"/>
    <path sodipodi:type="star" style="opacity:0.54418604000000004;fill:#ffffff;fill-opacity:1;fill-rule:evenodd;stroke:none" id="path5382" sodipodi:sides="6" sodipodi:cx="328.29959" sodipodi:cy="250.30106" sodipodi:r1="17.172592" sodipodi:r2="15.801392" sodipodi:arg1="1.080839" sodipodi:arg2="1.6044378" inkscape:flatsided="false" inkscape:rounded="6" inkscape:randomized="0" d="m 336.38081,265.45334 c -45.72243,24.3853 43.17674,2.3831 -8.6127,0.64017 -51.78944,-1.74293 35.42933,26.18637 -8.55017,-1.21777 -43.97951,-27.40414 19.52455,38.5837 -4.86075,-7.13874 -24.3853,-45.72243 -4.9634,43.77589 -3.22047,-8.01355 1.74293,-51.78944 -23.65219,36.20061 3.75195,-7.7789 27.40414,-43.9795 -40.39273,17.58951 5.3297,-6.79578 45.72244,-24.3853 -43.17674,-2.38309 8.6127,-0.64016 51.78944,1.74292 -35.42932,-26.18638 8.55018,1.21776 43.9795,27.40414 -19.52455,-38.5837 4.86075,7.13874 24.38529,45.72243 4.9634,-43.77589 3.22047,8.01355 -1.74293,51.78944 23.65218,-36.20061 -3.75196,7.7789 -27.40413,43.9795 40.39273,-17.58951 -5.3297,6.79578 z" transform="matrix(0.57606103,0,0,0.57606103,301.81355,-99.10018)"/>
    <path transform="matrix(0.79397445,0,0,0.79397445,81.449848,-100.61113)" d="m 336.38081,265.45334 c -80.86208,31.70071 78.19213,-8.71371 -8.6127,-11.63469 -83.81633,-2.82042 56.99736,63.37012 -8.55017,11.05709 -67.88467,-54.17826 46.64236,63.35952 5.76959,-13.27616 -39.46561,-73.99729 -26.38145,81.04622 -13.85081,-1.87613 12.97742,-85.87897 -31.54978,72.07323 14.38229,-1.64147 44.35072,-71.17686 -83.37882,17.67611 -5.30064,-12.93321 80.86209,-31.70071 -78.19213,8.71371 8.6127,11.63469 83.81634,2.82042 -56.99736,-63.37011 8.55018,-11.05709 67.88466,54.17827 -46.64237,-63.35952 -5.76959,13.27617 39.46561,73.99728 26.38144,-81.04623 13.85081,1.87612 -12.97743,85.87897 31.54977,-72.07323 -14.3823,1.64147 -44.35072,71.17686 83.37882,-17.67611 5.30064,12.93321 z" inkscape:randomized="0" inkscape:rounded="6" inkscape:flatsided="false" sodipodi:arg2="1.7207546" sodipodi:arg1="1.080839" sodipodi:r2="3.5575168" sodipodi:r1="17.172592" sodipodi:cy="250.30106" sodipodi:cx="328.29959" sodipodi:sides="6" id="path5384" style="opacity:0.54418604000000004;fill:#ffffff;fill-opacity:1;fill-rule:evenodd;stroke:none" sodipodi:type="star"/>
  </g>
  <metadata>
    <rdf:RDF>
      <cc:Work>
        <dc:format>image/svg+xml</dc:format>
        <dc:type rdf:resource="http://purl.org/dc/dcmitype/StillImage"/>
        <cc:license rdf:resource="http://creativecommons.org/licenses/publicdomain/"/>
        <dc:publisher>
          <cc:Agent rdf:about="http://openclipart.org/">
            <dc:title>Open Clip Art Library</dc:title>
          </cc:Agent>
        </dc:publisher>
        <dc:title>dark blue snowflakes</dc:title>
        <dc:date>2010-12-14T18:10:16</dc:date>
        <dc:description>Corrected Version of soft blue snowflakes (hills are now differentiated). Changing colors should be easy.</dc:description>
        <dc:source>http://openclipart.org/detail/100699/dark-blue-snowflakes-by-gem</dc:source>
        <dc:creator>
          <cc:Agent>
            <dc:title>gem</dc:title>
          </cc:Agent>
        </dc:creator>
        <dc:subject>
          <rdf:Bag>
            <rdf:li>background</rdf:li>
            <rdf:li>blue</rdf:li>
            <rdf:li>clip art</rdf:li>
            <rdf:li>clipart</rdf:li>
            <rdf:li>dark blue</rdf:li>
            <rdf:li>landscape</rdf:li>
            <rdf:li>scenery</rdf:li>
            <rdf:li>snow</rdf:li>
            <rdf:li>snowflakes</rdf:li>
            <rdf:li>stars</rdf:li>
            <rdf:li>winter</rdf:li>
          </rdf:Bag>
        </dc:subject>
      </cc:Work>
      <cc:License rdf:about="http://creativecommons.org/licenses/publicdomain/">
        <cc:permits rdf:resource="http://creativecommons.org/ns#Reproduction"/>
        <cc:permits rdf:resource="http://creativecommons.org/ns#Distribution"/>
        <cc:permits rdf:resource="http://creativecommons.org/ns#DerivativeWorks"/>
      </cc:License>
    </rdf:RDF>
  </metadata>
</svg>
